<svg xmlns="http://www.w3.org/2000/svg" viewBox="0 0 345.33 105.13"><defs><style>.cls-1{fill:#fff;}.cls-2{fill:#820019;}</style></defs><title>logo</title><g id="Слой_2" data-name="Слой 2"><g id="Logo"><path class="cls-1" d="M206.71,68.51h4.78a1.46,1.46,0,0,1,1.61,1.54c0,.89-.61,1.66-1.94,1.66h-4.45Zm0-3.45h4.12c1.31,0,1.7.59,1.7,1.38a1.25,1.25,0,0,1-1.35,1.32h-4.47Zm-.81-.77v8.18h5.32a2.48,2.48,0,0,0,2.7-2.46A2.12,2.12,0,0,0,212.52,68a1.9,1.9,0,0,0,.8-1.7c0-1.18-1-2-2.39-2Zm-10.34,0v4.19c0,2.71,1.55,4.2,4,4.2s4-1.49,4-4.2V64.3h-.81v4.2c0,2-1,3.42-3.2,3.42s-3.2-1.39-3.2-3.42V64.3Zm-8.77,0v8.18h7v-.77H187.6V64.3Zm-2,1.6a4.56,4.56,0,0,0-3.8-1.79,4.29,4.29,0,1,0,0,8.58,4.57,4.57,0,0,0,3.83-1.8l-.68-.43a3.8,3.8,0,0,1-3.19,1.46,3.4,3.4,0,0,1-3.54-3.54,3.3,3.3,0,0,1,3.54-3.49,3.78,3.78,0,0,1,3.18,1.42Zm-15.19-.84a6.1,6.1,0,0,0-3.68-.95c-1.94,0-3.58.69-3.58,2.28,0,1.35,1,1.88,2.42,2l2.52.28c1.22.13,1.9.58,1.9,1.52,0,1.14-1.1,1.72-2.9,1.72a5.94,5.94,0,0,1-3.71-1l-.42.68a6.53,6.53,0,0,0,3.9,1.08c2.41,0,3.93-.77,3.93-2.49,0-1.3-.94-2.06-2.51-2.25l-2.62-.33c-1-.12-1.71-.38-1.71-1.26s.61-1.52,2.78-1.52a6.16,6.16,0,0,1,3.29.83Zm-9.48,0a6.1,6.1,0,0,0-3.68-.95c-1.94,0-3.58.69-3.58,2.28,0,1.35,1,1.88,2.42,2l2.52.28c1.22.13,1.9.58,1.9,1.52,0,1.14-1.1,1.72-2.9,1.72a5.94,5.94,0,0,1-3.71-1l-.42.68a6.53,6.53,0,0,0,3.9,1.08c2.41,0,3.93-.77,3.93-2.49,0-1.3-.94-2.06-2.51-2.25l-2.62-.33c-1-.12-1.71-.38-1.71-1.26s.61-1.52,2.78-1.52a6.16,6.16,0,0,1,3.29.83Zm-16.46-.75v8.18h7.21v-.75h-6.39V68.65H150v-.75h-5.54V65.05h6.16V64.3Zm-10.53,0v8.18h.8V65.23l6.32,7.25h1V64.3h-.8v7.22L134.1,64.3Zm-10.15,0v.77h3.7v7.41h.81V65.07h3.7V64.3Zm-2.75,8.18H121V64.3h-.81Zm-9.19,0h.81V68.88h5.54v-.75H111.8V65.05H118V64.3h-7Z"/><path class="cls-1" d="M149.1,46.49h6.66l-3.33-6.07Zm24.33-11.07v13h4.73c4.53,0,7.42-1.18,7.42-6.39,0-4.9-2.28-6.56-6.81-6.56ZM223,30.36H229V53.83H223Zm-99,9.17,13.27-10.46V53.65h-6.08V41.4l-7.19,6-7.19-6V53.65h-6.08V29.07ZM158.35,51.2H146.52l-1.37,2.5h-6.93l14.21-24.2,14.21,24.2h-6.93Zm21.18-21c7.44,0,12,3.87,12,11.8,0,7.51-4.47,11.67-11.61,11.67H167.35V30.18Zm19.9,5.24v3.88h12.06v5.24H199.43v3.88h14v5.24H193.35V30.18h20.12v5.24ZM238,41.86v12h-6.08V29.26l17.93,13.48V30.36h6.08V54.92Z"/><polygon class="cls-1" points="303.82 40.37 310.12 30.4 317.81 30.4 306.86 46.72 306.86 53.88 300.78 53.88 300.78 46.72 289.82 30.4 297.51 30.4 303.82 40.37"/><polygon class="cls-1" points="318.79 53.83 324.87 53.83 324.87 41.85 332.06 47.58 339.25 41.85 339.25 53.83 345.33 53.83 345.33 29.24 332.06 39.7 318.79 29.24 318.79 53.83"/><path class="cls-1" d="M276.53,30.4H289v5.7H277.29c-4.44,0-6.55,1.3-6.55,5.94,0,4.94,2.73,6,7.16,6h4.89V45.31h-6V39.59H289V53.83H276.13c-7.36,0-11.87-4.3-11.87-11.78,0-7.9,4.61-11.64,12.28-11.64"/><path class="cls-2" d="M45.92,28.36,10.87,15.59l0,65.18,35,12.76L81,80.67V59.18H45.88V68.7H71.62v5.47l-25.7,9.51-25.69-9.4V29l25.69,9.43,25.7-9.46V43.3H81V15.57ZM91.84,0l-46,16.75L0,0V88.41l45.92,16.72L91.84,88.38V48.06h-46v9.52H82.51V81.84L45.92,95.19,9.33,81.85V13.38L45.92,26.69,82.51,13.35v30h9.33Z"/></g></g></svg>